<mxfile host="app.diagrams.net" modified="2024-04-07T01:44:42.410Z" agent="Mozilla/5.0 (Macintosh; Intel Mac OS X 10_15_7) AppleWebKit/537.36 (KHTML, like Gecko) Chrome/123.0.0.0 Safari/537.36" version="24.2.2" etag="hiEvk9DcVrJXJ5rNVUZG" type="github">
  <diagram name="第 1 页" id="1HdZOM-o33ypc3ro1dEc">
    <mxGraphModel>
      <root>
        <mxCell id="0" />
        <mxCell id="1" parent="0" />
      </root>
    </mxGraphModel>
  </diagram>
</mxfile>
